<svg xmlns="http://www.w3.org/2000/svg" xmlns:xlink="http://www.w3.org/1999/xlink" id="Layer_1" x="0" y="0" version="1.1" viewBox="0 0 496.159 496.159" xml:space="preserve" style="enable-background:new 0 0 496.159 496.159"><path style="fill:#a3d5e0" d="M248.083,0.003C111.071,0.003,0,111.063,0,248.085c0,137.001,111.07,248.07,248.083,248.07	c137.006,0,248.076-111.069,248.076-248.07C496.159,111.062,385.089,0.003,248.083,0.003z"/><ellipse style="fill:#3e959e" cx="248.08" cy="351.249" rx="138" ry="48"/><g><ellipse style="fill:#48a1af" cx="248.08" cy="347.079" rx="138" ry="48"/><ellipse style="fill:#48a1af" cx="248.08" cy="285.079" rx="138" ry="48"/><rect style="fill:#48a1af" width="275.86" height="64.917" x="110.08" y="283.329"/></g><ellipse style="fill:#57b7c1" cx="248.08" cy="285.079" rx="124.39" ry="43.27"/><ellipse style="fill:#3e959e" cx="248.08" cy="281.749" rx="138" ry="48"/><g><ellipse style="fill:#48a1af" cx="248.08" cy="277.579" rx="138" ry="48"/><ellipse style="fill:#48a1af" cx="248.08" cy="215.579" rx="138" ry="48"/><rect style="fill:#48a1af" width="275.86" height="64.917" x="110.08" y="213.829"/></g><ellipse style="fill:#57b7c1" cx="248.08" cy="215.579" rx="124.39" ry="43.27"/><ellipse style="fill:#3e959e" cx="248.08" cy="211.079" rx="138" ry="48"/><g><ellipse style="fill:#48a1af" cx="248.08" cy="206.909" rx="138" ry="48"/><ellipse style="fill:#48a1af" cx="248.08" cy="144.909" rx="138" ry="48"/><rect style="fill:#48a1af" width="275.86" height="64.917" x="110.08" y="143.159"/></g><ellipse style="fill:#57b7c1" cx="248.08" cy="144.909" rx="124.39" ry="43.27"/></svg>