<svg id="Layer_1" data-name="Layer 1" xmlns="http://www.w3.org/2000/svg" viewBox="0 0 178.29 177.53"><defs><style>.cls-1{fill:#50b51f;}.cls-2{fill:#fcfdfc;}.cls-3{fill:#fefefe;}.cls-4{fill:#deeed7;}.cls-5{fill:#7ec660;}.cls-6{fill:#c4e3b8;}</style></defs><path class="cls-1" d="M438.27,604.1c-1.88-.2-2.78-1.75-3.86-3-24.06-26.85-30.52-57.87-18.4-91.39s37.5-52.95,72.82-57.47c26.75-3.42,50.77,4.49,70.78,23,2.82,2.62,4.31,3,6.09-.63,1-2.08,2.39-4,3.53-6,1-1.88,2-3.82,3.3-6.33,3.55,9.68,6.23,19.14,8.74,28.65,4.93,18.74,8.17,37.58,6.71,57.19-3.27,43.94-42.06,80.37-86.13,80.88-22.19.25-41.85-5.8-58.88-20.11,1.18-1.47,3-1.17,4.56-1.66,3-1,4.11-3.19,3.93-6.14a5.79,5.79,0,0,0-4.89-5.53c-3-.71-5.1.72-6.44,3.4C439.31,600.64,439.45,602.61,438.27,604.1Z" transform="translate(-410.05 -451.51)"/><path class="cls-2" d="M438.27,604.1a8.11,8.11,0,0,1,1.07-6.67c2.06-3.15,5.05-4.28,8.62-3.06a7,7,0,0,1,5,7.66c-.27,3.75-2.31,6.14-6.06,6.8a25,25,0,0,1-4,.1C439.78,608.9,439.81,605.74,438.27,604.1Z" transform="translate(-410.05 -451.51)"/><path class="cls-3" d="M469,599.1c9.48-3.06,19.07-5.81,28.42-9.22,30.38-11.11,51.83-31.53,63.54-61.88.69-2.16.68-2.18-.78-1.91-16.29,28.93-41.29,46.3-72.94,54.72-10.43,2.78-21,5-31.5,7.64a7.09,7.09,0,0,1-6.08-1.14c-8.5-5.66-12-14.09-12.64-23.78-1.52-24.5,15.24-44.71,40.74-49.54,8.87-1.68,17.88-1.64,26.84-2.36,28.68-2.28,51.31-14.93,67.15-39.9a204.29,204.29,0,0,1,8.65,30.17c3.62,16.83,6,33.78,2.74,51-5.5,28.84-22.82,44.27-52.1,47-17.65,1.67-35.27.59-52.9.1C475,600,471.77,601.76,469,599.1Z" transform="translate(-410.05 -451.51)"/><path class="cls-4" d="M469,599.1c2.91,1.69,6.15,0,9.14.93-4.3,1.05-8.66.73-13.13.14Z" transform="translate(-410.05 -451.51)"/><path class="cls-5" d="M560.14,526.09c.46-1.11.39-2.59,2.18-2.9a6.63,6.63,0,0,1-1.4,4.81Z" transform="translate(-410.05 -451.51)"/><path class="cls-6" d="M563.4,518.4c.64,1.48.69,2.73-.32,3-1.52.43-.86-.79-.64-1.44A10.1,10.1,0,0,1,563.4,518.4Z" transform="translate(-410.05 -451.51)"/></svg>