<svg xmlns="http://www.w3.org/2000/svg" xmlns:xlink="http://www.w3.org/1999/xlink" id="Capa_1" x="0" y="0" version="1.1" viewBox="0 0 512 512" xml:space="preserve" style="enable-background:new 0 0 512 512"><polygon style="fill:#5a6b96" points="9.876 209.352 9.266 205.498 130.108 155.047 381.892 155.047 502.734 205.498 502.123 209.352 256 229.444"/><polygon style="fill:#d4d4d4" points="125.515 159.063 179.899 106.919 331.438 106.919 385.822 159.063"/><polygon style="fill:#fbc640" points="179.899 265.558 130.519 218.217 130.519 215.181 132.691 215.348 256 225.415 384.205 214.949 331.439 265.558"/><polygon style="fill:#44c973" points="151.779 471.342 211.87 261.542 300.145 261.542 359.55 471.342"/><path style="fill:#8ce0ff" d="M178.001,110.935l4.94-16.323c4.767-15.721,14.259-29.204,27.451-38.991	c13.194-9.787,28.85-14.96,45.277-14.96c16.424,0,32.079,5.173,45.272,14.96c13.195,9.788,22.686,23.272,27.446,38.99l4.952,16.324	H178.001z"/><path d="M511.876,208.92c0.724-4.574-1.775-9.05-6.048-10.834l-119.917-50.065l-46.435-44.522l-3.402-11.216	c-5.265-17.381-15.759-32.289-30.347-43.112c-14.588-10.821-31.897-16.543-50.057-16.543c-18.163,0-35.475,5.72-50.062,16.543	c-14.586,10.82-25.082,25.728-30.353,43.114l-3.394,11.216l-46.944,45.01L6.172,198.086c-4.274,1.784-6.772,6.26-6.048,10.834	c0.724,4.575,4.484,8.059,9.099,8.436l118.92,9.708l45.615,43.733c1.869,1.792,4.358,2.792,6.947,2.792h19.36l-55.273,192.98	c-0.867,3.031-0.263,6.292,1.634,8.807c1.897,2.516,4.865,3.996,8.016,3.996h202.45c3.146,0,6.11-1.475,8.008-3.985	c1.897-2.509,2.509-5.762,1.651-8.79l-54.65-193.009h18.728c2.59,0,5.08-1.001,6.949-2.794l45.532-43.669l119.665-9.768	C507.393,216.98,511.152,213.495,511.876,208.92z M194.47,98.106c8.233-27.155,32.827-45.399,61.199-45.399	c28.375,0,52.965,18.243,61.19,45.401l0.236,0.779H194.233L194.47,98.106z M184.741,118.966h141.856l29.254,28.05H155.487	L184.741,118.966z M343.617,459.295H167.762l53.19-185.705h70.085L343.617,459.295z M326.595,253.51H213.162	c-0.004,0-0.008,0-0.012,0h-28.409l-24.884-23.857l95.326,7.781c0.272,0.022,0.544,0.033,0.816,0.033	c0.272,0,0.545-0.011,0.816-0.033l94.59-7.722L326.595,253.51z M256,217.356L52.016,200.705l80.506-33.61h246.956l80.505,33.61	L256,217.356z"/><path d="M356.897,179.197c-12.919,0-12.941,20.078,0,20.078C369.817,199.276,369.838,179.197,356.897,179.197z"/><path d="M255.668,183.213c-12.919,0-12.941,20.078,0,20.078C268.589,203.291,268.61,183.213,255.668,183.213z"/><path d="M154.44,179.197c-12.919,0-12.941,20.078,0,20.078C167.359,199.276,167.381,179.197,154.44,179.197z"/><path d="M256,447.38c5.545,0,10.039-4.496,10.039-10.039v-90.347c0-5.544-4.495-10.039-10.039-10.039	c-5.545,0-10.039,4.496-10.039,10.039v90.347C245.961,442.886,250.456,447.38,256,447.38z"/><path d="M256,325.077c12.919,0,12.941-20.078,0-20.078C243.081,304.999,243.059,325.077,256,325.077z"/></svg>