<svg id="Layer_1" data-name="Layer 1" xmlns="http://www.w3.org/2000/svg" viewBox="0 0 800 800">
    <defs>
        <style>.cls-1{fill:#c2d5e5;}.cls-2{fill:#e0dac7;}.cls-3{fill:#adc7dc;}.cls-4{fill:#e1eaf2;}.cls-5{fill:#d3e1ed;}.cls-6{fill:#d0dfeb;}.cls-7{fill:#e6eef5;}.cls-8{fill:#c4d7e6;}.cls-9{fill:#7ea7c9;}.cls-10{fill:#d5e2ed;}.cls-11{fill:#4f87b5;}.cls-12{fill:#cdddea;}.cls-13{fill:#578db9;}</style>
    </defs>
    <path class="cls-1" d="M800,180.84,739.88,76.53C739.88,79.35,787,159.08,800,181Z" />
    <path class="cls-2" d="M800,599.94c-24.09-19.52-60.12-48.66-60.12-48.18v.73L800,600.29Z" />
    <path class="cls-2" d="M800,353.55l-60.12,48.64s29.37-23.28,60.12-47.86Z" />
    <path class="cls-1" d="M800,103.84c-30.48-14.52-60.12-28.37-60.12-27.31L800,104.65Z" />
    <polygon class="cls-2" points="800 292.27 739.88 288.92 800 292.97 800 292.27" />
    <polygon class="cls-3" points="788.73 720.28 779.41 732.22 779.39 732.25 779.66 732.48 778.99 732.77 778.9 732.89 778.84 732.83 767.7 737.64 800 737.64 800 720.65 800 706 800 705.82 788.73 720.28" />
    <polygon class="cls-3" points="800 624.49 739.88 645.43 692.95 661.46 739.88 673.23 800 688.32 800 624.49" />
    <polygon class="cls-3" points="778.9 732.89 778.99 732.77 778.84 732.83 778.9 732.89" />
    <polygon class="cls-4" points="800 688.32 739.88 673.23 692.95 661.46 692.84 661.5 708.59 674.56 739.88 700.06 779.39 732.25 779.41 732.22 788.73 720.28 800 705.82 800 688.32" />
    <path class="cls-2" d="M800,552.69l-60.12-.93c0-.48,36,28.66,60.12,48.18Z" />
    <polygon class="cls-5" points="800 532.65 739.88 497.31 739.88 551.76 800 552.69 800 532.65" />
    <polygon class="cls-4" points="800 491.87 739.88 497.31 800 532.65 800 491.87" />
    <polygon class="cls-6" points="800 438.63 739.88 402.19 739.88 497.31 800 491.87 800 438.63" />
    <path class="cls-4" d="M800,354.33c-30.75,24.58-60.12,47.86-60.12,47.86L800,438.63Z" />
    <polygon class="cls-2" points="800 292.97 739.88 288.92 739.88 402.19 800 353.55 800 292.97" />
    <polygon class="cls-1" points="800 191.83 739.88 288.92 800 292.27 800 191.83" />
    <polygon class="cls-1" points="800 104.65 739.88 76.53 800 180.84 800 104.65" />
    <path class="cls-3" d="M799.62,0H739.88V76.53c0-1.06,29.64,12.79,60.12,27.31V.78Z" />
    <polyline class="cls-7" points="656.96 785.57 739.88 749.69 740.34 749.49 767.29 737.83 767.7 737.64 778.84 732.83 778.99 732.77 779.66 732.48 779.39 732.25 739.88 700.06 708.59 674.56" />
    <polyline class="cls-6" points="708.59 674.56 692.64 661.57 692.32 661.68 692.44 661.4 692.04 661.08 692.02 661.14 621.6 603.68 648.42 737.64 647.67 737.77 647.67 737.78 656.96 785.57" />
    <polygon class="cls-7" points="767.29 737.83 767.75 737.64 767.7 737.64 767.29 737.83" />
    <polygon class="cls-6" points="780.31 737.64 780.28 737.64 767.75 737.64 767.29 737.83 740.34 749.49 739.88 749.69 739.88 800 764.92 800 800 800 800 799.92 800 798.27 800 737.64 780.31 737.64" />
    <path class="cls-6" d="M0,317.25v.1l22.87,4.24Z" />
    <path class="cls-3" d="M198.73,0c13.68,46.8,26.56,90.69,26.56,90.69L199,0Z" />
    <path class="cls-6" d="M263.7,597.69l-72.55-70.25C191.75,529.08,263.7,597.69,263.7,597.69Z" />
    <polygon class="cls-5" points="433.2 569.92 351.5 575.37 513.68 565.01 433.2 569.92" />
    <polygon class="cls-6" points="692.64 661.57 708.59 674.56 692.84 661.5 692.64 661.57" />
    <polygon class="cls-4" points="692.93 572.65 621.6 603.68 739.88 552.49 692.93 572.65" />
    <polygon class="cls-5" points="59.45 647.61 72.46 720.95 49.7 587.34 59.45 647.61" />
    <polygon class="cls-6" points="504.54 501.3 433.2 569.92 564.9 444.12 504.54 501.3" />
    <path class="cls-5" d="M478.32,620.57,351.5,575.37s0,0,0,0C353.84,577.39,478.32,620.57,478.32,620.57Z" />
    <path class="cls-1" d="M621.6,603.68s40.24-92,40.24-92.58Z" />
    <path class="cls-5" d="M572.47,684c-6.21-4.23-94.74-64.53-94.15-63.47Z" />
    <path class="cls-3" d="M351.5,575.37,372,597.43c-11.64-12.62-19.74-21.37-20.42-22C351.49,575.35,351.48,575.34,351.5,575.37Z" />
    <path class="cls-3" d="M385.07,500.66l46.7-113h0C430.93,389.53,386.58,497,385.07,500.66Z" />
    <polygon class="cls-2" points="122.86 23.16 317.96 152.77 225.29 90.69 122.86 23.16" />
    <path class="cls-6" d="M162.51,410.28l-57.68-36,.06.13c30.12,19.3,57,36.48,57,36.48Z" />
    <polygon class="cls-8" points="22.87 321.59 4.22 449.78 15.55 373.87 22.87 321.59" />
    <path class="cls-5" d="M22.87,321.59c.7.62,26.11,17,55,35.52Z" />
    <path class="cls-1" d="M680.82,93.61,627.69,107,496,144.06S608.62,112.91,680.82,93.61Z" />
    <path class="cls-3" d="M572.71,683.64c-1.45-7.15-18.18-73.42-18.18-73.42l18.15,73.48Z" />
    <polygon class="cls-4" points="0 726.95 59.45 647.61 17.18 702.79 0 726.55 0 726.95" />
    <path class="cls-4" d="M454.15,265.37c7.34,15.31,110.75,178.75,110.75,178.75L453.72,264.23l.16.4C454,264.82,454,265.07,454.15,265.37Z" />
    <polygon class="cls-1" points="159.19 737.64 166.99 760.52 167.01 760.52 159.33 737.64 129.36 648.34 144.81 695.53 159.19 737.64" />
    <path class="cls-3" d="M661.84,511.1l-96.94-67C567.53,446.48,661.84,511.1,661.84,511.1Z" />
    <path class="cls-7" d="M106.08,113.09l-7.61,40.77.63.59C100.26,147.48,102.93,131.55,106.08,113.09Z" />
    <polygon class="cls-8" points="263.5 309.25 431.77 387.67 337.47 343.37 263.5 309.25" />
    <polygon class="cls-4" points="431.77 387.67 564.9 444.12 512.26 421.79 431.77 387.67" />
    <polygon class="cls-7" points="524.05 262.77 496 144.06 564.9 444.12 524.05 262.77" />
    <polygon class="cls-3" points="374.06 643.44 405.77 737.64 351.5 575.37 374.06 643.44" />
    <path class="cls-4" d="M283,690.2l-5.59-26.78c2.85,13.83,5.12,24.86,5.51,26.74Z" />
    <polygon class="cls-5" points="692.04 661.08 692.44 661.4 739.88 552.49 692.04 661.08" />
    <polygon class="cls-4" points="188.48 238.61 263.5 309.25 188.71 238.81 188.48 238.61" />
    <polygon class="cls-1" points="125.3 465.36 161.88 410.9 93.61 510.54 125.3 465.36" />
    <path class="cls-4" d="M647.67,737.77l.75-.13-26.82-134s-48.78,82.23-48.78,80.6" />
    <polyline class="cls-7" points="572.82 684.28 539.82 737.64 527.71 757.25 647.67 737.77" />
    <path class="cls-7" d="M572.82,684.28c0-.07-.05-.32-.11-.64l0,.06Z" />
    <polygon class="cls-5" points="572.47 684.04 478.32 620.57 467.95 701.71 572.82 684.28 572.47 684.04" />
    <polygon class="cls-1" points="572.82 684.28 467.95 701.71 506.61 737.64 527.71 757.25 539.82 737.64 572.82 684.28" />
    <path class="cls-7" d="M351.54,575.39c.68.67,8.78,9.42,20.42,22l29.53,31.85s65.85,71.34,66.46,72.43l10.37-81.14S353.84,577.39,351.54,575.39Z" />
    <path class="cls-5" d="M401.49,629.28l4.28,108.36L468,701.71C467.34,700.62,401.49,629.28,401.49,629.28Z" />
    <polygon class="cls-3" points="371.96 597.43 351.5 575.37 405.77 737.64 401.49 629.28 371.96 597.43" />
    <polygon class="cls-1" points="313.01 737.64 297.84 761.06 405.77 737.64 374.06 643.44 313.01 737.64" />
    <path class="cls-4" d="M277.44,663.42,283,690.2l.18.07L293,737.64l4.84,23.42L313,737.64l61-94.2L263.7,597.69C263.7,597,271.73,635.79,277.44,663.42Z" />
    <polygon class="cls-2" points="374.06 643.44 351.5 575.37 263.7 597.69 374.06 643.44" />
    <path class="cls-7" d="M277.44,663.42c-5.71-27.63-13.74-66.43-13.74-65.73L215.53,662,283,690.16C282.56,688.28,280.29,677.25,277.44,663.42Z" />
    <polygon class="cls-5" points="283.21 690.27 283.04 690.2 282.95 690.16 215.53 661.95 278.39 737.64 297.84 761.06 293 737.64 283.21 690.27" />
    <path class="cls-6" d="M191.15,527.44,215.53,662l48.17-64.26S191.75,529.08,191.15,527.44Z" />
    <polygon class="cls-4" points="129.36 648.34 215.53 661.95 191.15 527.44 129.36 648.34" />
    <polygon class="cls-1" points="215.53 661.95 129.36 648.34 159.33 737.64 167.01 760.52 167.04 760.65 167.37 761.61 178.95 737.64 215.53 661.95" />
    <polygon class="cls-1" points="129.36 648.34 72.46 720.95 144.81 695.53 129.36 648.34" />
    <polygon class="cls-5" points="49.7 587.34 72.46 720.95 129.36 648.34 49.7 587.34" />
    <polygon class="cls-6" points="142.37 548.68 49.7 587.34 129.36 648.34 191.15 527.44 142.37 548.68" />
    <polygon class="cls-4" points="0 735.98 72.46 720.95 59.45 647.61 0 726.95 0 735.98" />
    <polygon class="cls-6" points="0 604.35 59.45 647.61 49.7 587.34 0 577.6 0 604.35" />
    <polygon class="cls-6" points="0 604.35 0 668.17 17.18 702.79 59.45 647.61 0 604.35" />
    <polygon class="cls-6" points="0 668.17 0 726.55 17.18 702.79 0 668.17" />
    <polygon class="cls-5" points="739.88 552.49 692.44 661.4 692.32 661.68 692.64 661.57 692.84 661.5 692.95 661.46 739.88 645.43 800 624.49 800 600.29 739.88 552.49" />
    <polygon class="cls-4" points="621.6 603.68 692.02 661.14 692.04 661.08 739.88 552.49 621.6 603.68" />
    <polygon class="cls-8" points="263.7 597.69 269.19 487.69 191.15 527.44 263.7 597.69" />
    <path class="cls-5" d="M93.59,510.56,63.72,487.14c.61,1.46-14,100.2-14,100.2l92.67-38.66,48.78-21.24Z" />
    <polygon class="cls-1" points="263.7 597.69 351.5 575.37 269.19 487.69 263.7 597.69" />
    <path class="cls-1" d="M572.47,684l.35.24-.14-.58-18.15-73.48-76.21,10.35C477.73,619.51,566.26,679.81,572.47,684Z" />
    <path class="cls-3" d="M572.71,683.64c.06.32.11.57.11.64,0,1.63,48.78-80.6,48.78-80.6l-67.07,6.54S571.26,676.49,572.71,683.64Z" />
    <path class="cls-7" d="M661.84,511.1c0,.55-40.24,92.58-40.24,92.58l71.33-31Z" />
    <polygon class="cls-3" points="739.88 552.49 661.84 511.1 692.93 572.65 739.88 552.49" />
    <polygon class="cls-4" points="739.88 552.48 739.88 551.76 739.88 497.49 661.84 511.1 739.88 552.49 739.88 552.48" />
    <polygon class="cls-1" points="616.72 553.04 554.53 610.22 621.6 603.68 661.84 511.1 616.72 553.04" />
    <polygon class="cls-4" points="478.32 620.57 554.53 610.22 513.68 565.01 478.32 620.57" />
    <polygon class="cls-5" points="513.68 565.01 351.5 575.37 478.32 620.57 513.68 565.01" />
    <polygon class="cls-2" points="554.53 610.22 616.72 553.04 513.68 565.01 554.53 610.22" />
    <polygon class="cls-1" points="513.68 565.01 616.72 553.04 564.9 444.12 513.68 565.01" />
    <polygon class="cls-6" points="433.2 569.92 513.68 565.01 564.9 444.12 433.2 569.92" />
    <polygon class="cls-7" points="385.03 500.76 351.5 575.37 433.2 569.92 385.03 500.76" />
    <polygon class="cls-1" points="385.03 500.76 433.2 569.92 504.54 501.3 385.03 500.76" />
    <polygon class="cls-2" points="269.19 487.69 351.5 575.37 385.03 500.76 269.19 487.69" />
    <path class="cls-2" d="M616.72,553l45.12-41.94s-94.31-64.62-96.94-67Z" />
    <path class="cls-3" d="M661.84,511.1s9.75-141.59,9.75-143.77L564.9,444.12Z" />
    <path class="cls-1" d="M661.84,511.1l78-109.64-68.29-34.13C671.59,369.51,661.84,511.1,661.84,511.1Z" />
    <polygon class="cls-7" points="739.88 497.49 739.88 497.31 739.88 402.19 739.88 401.46 661.84 511.1 739.88 497.49" />
    <polygon class="cls-8" points="0 553.14 0 577.6 49.7 587.34 0 553.14" />
    <path class="cls-4" d="M63.72,487.14,0,486.29v66.85l49.7,34.2S64.33,488.6,63.72,487.14Z" />
    <polygon class="cls-3" points="0 486.29 63.72 487.14 4.17 450.11 0 447.48 0 486.29" />
    <polygon class="cls-4" points="0 317.35 0 332.45 22.87 321.59 0 317.35" />
    <polygon class="cls-8" points="0 332.45 0 447.48 4.17 450.11 4.22 449.78 22.87 321.59 0 332.45" />
    <polygon class="cls-6" points="4.17 450.11 63.72 487.14 161.88 410.9 4.17 450.11" />
    <polygon class="cls-4" points="15.55 373.87 4.22 449.78 4.17 450.11 161.88 410.9 15.55 373.87" />
    <path class="cls-7" d="M161.89,410.9s-26.88-17.18-57-36.48l.09.18-27.1-17.49c-28.9-18.55-54.31-34.9-55-35.52l-7.32,52.28Z" />
    <path class="cls-4" d="M739.88,401.46V289.64c0,.73-68.29,77.69-68.29,77.69Z" />
    <path class="cls-6" d="M0,317.25l22.87,4.34L21.25,196.71,0,213.51Z" />
    <polygon class="cls-1" points="161.88 410.9 125.3 465.36 93.61 510.54 161.88 410.9 63.72 487.14 93.59 510.56 191.15 527.44 161.88 410.9" />
    <path class="cls-5" d="M431.77,387.67l-46.7,113a.55.55,0,0,0,0,.1l119.51.54,60.36-57.18Z" />
    <polygon class="cls-4" points="671.59 367.33 639.89 247.53 564.9 444.12 671.59 367.33" />
    <polygon class="cls-7" points="232.61 340.47 163.51 410.9 162.51 410.27 161.88 410.9 191.15 527.44 263.5 309.25 232.61 340.47" />
    <path class="cls-9" d="M453.88,264.63l.27.73h0C454,265.07,454,264.82,453.88,264.63Z" />
    <polygon class="cls-5" points="77.88 357.11 104.98 374.6 104.89 374.42 104.83 374.29 104.17 373.87 70.43 304.16 21.25 196.71 22.87 321.59 77.88 357.11" />
    <polygon class="cls-6" points="163.51 410.9 232.61 340.47 104.17 373.87 104.83 374.29 162.51 410.27 163.51 410.9" />
    <polygon class="cls-5" points="191.15 527.44 269.19 487.69 263.5 309.25 191.15 527.44" />
    <path class="cls-3" d="M431.77,387.67l-162.58,100L385,500.76a.55.55,0,0,1,0-.1C386.58,497,430.93,389.53,431.77,387.67Z" />
    <path class="cls-7" d="M453.88,264.63l-.16-.4a3.53,3.53,0,0,0,.43,1.13Z" />
    <path class="cls-4" d="M454.15,265.37h0a3.53,3.53,0,0,1-.43-1.13L431.78,387.65v0l80.49,34.12,52.64,22.33S461.49,280.68,454.15,265.37Z" />
    <path class="cls-7" d="M671.59,367.33s68.29-77,68.29-77.69l-100-42.11Z" />
    <polygon class="cls-2" points="0 195.59 0 213.51 21.25 196.71 0 195.59" />
    <polyline class="cls-4" points="21.25 196.71 70.43 304.16 98.47 153.86" />
    <path class="cls-7" d="M98.47,153.86l7.61-40.77C112.25,76.9,120.27,31,122.38,24L21.25,196.71" />
    <polygon class="cls-8" points="431.77 387.67 431.77 387.67 263.5 309.25 269.19 487.69 431.77 387.67 431.77 387.67" />
    <polygon class="cls-7" points="564.9 444.12 496 144.06 453.72 264.23 564.9 444.12" />
    <path class="cls-6" d="M739.88,289.64V79.4c-3.26,11.59-100,168.13-100,168.13Z" />
    <polygon class="cls-1" points="70.43 304.16 104.17 373.87 232.61 340.47 70.43 304.16" />
    <polygon class="cls-4" points="263.5 309.25 70.43 304.16 232.61 340.47 263.5 309.25" />
    <polygon class="cls-5" points="564.9 444.12 639.89 247.53 524.05 262.77 564.9 444.12" />
    <polygon class="cls-5" points="0 186.78 0 195.59 21.25 196.71 0 186.78" />
    <path class="cls-7" d="M431.77,387.67h0v0l21.94-123.42L337.47,343.37Z" />
    <polygon class="cls-8" points="0 76 0 186.78 21.25 196.71 0 76" />
    <polyline class="cls-6" points="70.43 304.16 263.5 309.25 188.48 238.61" />
    <path class="cls-5" d="M188.48,238.61l-90-80.39s.23-1.36.63-3.77l-.63-.59-28,150.3" />
    <polygon class="cls-6" points="639.89 247.53 496 144.06 524.05 262.77 639.89 247.53" />
    <path class="cls-1" d="M496,144.06,639.89,247.53S736.62,91,739.88,79.4v-.69l-59.06,14.9C608.62,112.91,496,144.06,496,144.06Z" />
    <path class="cls-10" d="M0,.62V76L21.25,196.71,122.38,24a3.37,3.37,0,0,1,.33-.85Z" />
    <polygon class="cls-5" points="453.72 264.23 317.96 152.77 263.5 309.25 453.72 264.23" />
    <polygon class="cls-4" points="337.47 343.37 453.72 264.23 263.5 309.25 337.47 343.37" />
    <polygon class="cls-6" points="453.72 264.23 496 144.06 317.96 152.77 453.72 264.23" />
    <path class="cls-1" d="M103.77,0H0V.62L122.71,23.13s.06-.07.07-.07Z" />
    <path class="cls-4" d="M739.88,0H700.2l39.68,78.71V288.92L800,191.83V181c-13-21.92-60.12-101.65-60.12-104.47Z" />
    <polygon class="cls-4" points="263.5 309.25 317.96 152.77 188.71 238.81 263.5 309.25" />
    <polygon class="cls-7" points="516.58 0 496 144.06 627.69 107.03 526.9 0 516.58 0" />
    <polygon class="cls-4" points="526.9 0 627.69 107.03 680.82 93.61 739.88 78.7 541.88 0 526.9 0" />
    <path class="cls-4" d="M98.47,158.22l90,80.39.23.2L122.86,23.16l-.08-.1s0,0-.07.07a3.37,3.37,0,0,0-.33.85c-2.11,7-10.13,52.92-16.3,89.11-3.15,18.46-5.82,34.39-7,41.36C98.7,156.86,98.47,158.22,98.47,158.22Z" />
    <path class="cls-3" d="M103.77,0l19,23.06.08.1s3-9.37,7.48-23.16Z" />
    <polyline class="cls-7" points="188.71 238.81 317.96 152.77 225.05 91.05" />
    <polyline class="cls-8" points="225.05 91.05 122.86 23.16 188.71 238.81" />
    <polygon class="cls-5" points="541.88 0 739.88 78.7 700.2 0 541.88 0" />
    <polygon class="cls-2" points="398.7 0 225.29 90.69 317.96 152.77 407 0 398.7 0" />
    <polygon class="cls-3" points="198.95 0 225.29 90.69 398.7 0 198.95 0" />
    <polygon class="cls-8" points="407 0 317.96 152.77 496 144.06 414.19 0 407 0" />
    <polygon class="cls-5" points="414.19 0 496 144.06 516.58 0 414.19 0" />
    <path class="cls-10" d="M130.34,0c-4.46,13.79-7.48,23.16-7.48,23.16L225.29,90.69S212.41,46.8,198.73,0Z" />
    <polygon class="cls-3" points="255.02 761.25 299.67 761.61 405.77 737.64 297.84 761.06 255.02 761.25" />
    <polygon class="cls-1" points="647.67 737.77 527.71 757.25 405.77 737.64 527.71 759.43 647.67 737.78 647.67 737.77" />
    <path class="cls-11" d="M178.23,800l-11.17-38.44H167c1,3.9,5.23,18.62,11,38.44Z" />
    <polygon class="cls-1" points="0 745.41 0 800 44.99 800 0 745.41" />
    <polygon class="cls-4" points="739.88 800 739.88 749.69 656.96 785.57 664.23 800 739.88 800" />
    <path class="cls-1" d="M0,738.75v6.66L45,800H153.51c6.25-19.12,11.38-34.62,12.83-38.53Z" />
    <polygon class="cls-3" points="408.15 800 405.77 737.64 299.67 761.61 340.84 800 408.15 800" />
    <polygon class="cls-7" points="664.23 800 656.96 785.57 630.65 800 664.23 800" />
    <polygon class="cls-1" points="527.71 759.43 656.96 785.57 647.67 737.78 527.71 759.43" />
    <polygon class="cls-12" points="167.04 760.64 167.04 760.65 167.01 760.52 166.99 760.52 167.04 760.64" />
    <polygon class="cls-4" points="340.84 800 299.67 761.61 255.02 761.25 169.28 761.6 258.84 800 340.84 800" />
    <polygon class="cls-1" points="482.75 800 527.71 759.43 405.77 737.64 408.15 800 482.75 800" />
    <polygon class="cls-1" points="258.84 800 169.28 761.6 167.37 761.61 167.06 761.57 178.23 800 258.84 800" />
    <polygon class="cls-13" points="167.04 760.64 167.37 761.61 167.04 760.65 167.04 760.64" />
    <polygon class="cls-3" points="630.65 800 656.96 785.57 527.71 759.43 523.84 800 630.65 800" />
    <polygon class="cls-7" points="523.84 800 527.71 759.43 482.75 800 523.84 800" />
    <polygon class="cls-3" points="506.61 737.64 467.95 701.71 405.77 737.64 527.71 757.25 506.61 737.64" />
    <polygon class="cls-7" points="278.39 737.64 215.53 661.95 178.95 737.64 167.37 761.61 169.28 761.6 255.02 761.25 297.84 761.06 278.39 737.64" />
    <polygon class="cls-4" points="166.99 760.52 159.19 737.64 144.81 695.53 72.46 720.95 111.43 737.64 167.37 761.61 167.04 760.64 166.99 760.52" />
    <path class="cls-6" d="M178,800c-5.73-19.82-9.95-34.54-11-38.44h.07l.31.05-55.94-24L72.46,721,0,736v2.77l166.34,22.72c-1.45,3.91-6.58,19.41-12.83,38.53Z" />
</svg>