<svg xmlns="http://www.w3.org/2000/svg" xmlns:xlink="http://www.w3.org/1999/xlink" width="460" height="809" version="1.1" viewBox="0 0 460 809"><title>Group 3</title><desc>Created with Sketch.</desc><defs><rect id="path-1" width="251" height="516" x="0" y="0" rx="36.45"/><filter id="filter-2" width="149.4%" height="124%" x="-28.7%" y="-7.8%" filterUnits="objectBoundingBox"><feOffset dx="-10" dy="22" in="SourceAlpha" result="shadowOffsetOuter1"/><feGaussianBlur in="shadowOffsetOuter1" result="shadowBlurOuter1" stdDeviation="17"/><feColorMatrix in="shadowBlurOuter1" type="matrix" values="0 0 0 0 0 0 0 0 0 0 0 0 0 0 0 0 0 0 0.1 0"/></filter><rect id="path-3" width="319" height="504" x="0" y="0"/></defs><g id="Page-1" fill="none" fill-rule="evenodd" stroke="none" stroke-width="1"><g id="Group-3" transform="translate(-1.000000, 0.000000)"><g id="Background" opacity=".2" transform="translate(231.000000, 404.500000) scale(-1, 1) translate(-231.000000, -404.500000) translate(1.000000, 0.000000)"><circle id="Oval" cx="230" cy="293" r="230" fill="#FF9B21"/><circle id="Oval" cx="370" cy="768" r="41" fill="#2B44FF"/><polygon id="Polygon" fill="#2B44FF" points="192 0 241 49 192 98 143 49"/><polygon id="Polygon" fill="#FF9B21" points="56 690 80 714 56 738 32 714"/><polygon id="Polygon" fill="#2026A2" points="403 63 415 75 403 87 391 75"/></g><g id="Group-4" transform="translate(178.000000, 371.000000) scale(-1, 1) translate(-178.000000, -371.000000) translate(0.000000, 107.000000)"><g id="Group" transform="translate(177.901120, 263.740848) rotate(-2.000000) translate(-177.901120, -263.740848) translate(8.901120, 5.740848)"><g id="base"><use fill="#000" fill-opacity="1" filter="url(#filter-2)" xlink:href="#path-1"/><use fill="#F2F2F2" fill-rule="evenodd" xlink:href="#path-1"/></g><path id="Screen" fill="#FF9B21" d="M64,15.0510368 C64,22.6559974 70.1650387,28.8210361 77.7699993,28.8210361 L77.7699993,28.8210361 L173.193622,28.8210361 C180.798583,28.8210361 186.963622,22.6559974 186.963622,15.0510368 L186.963622,15.0510368 L186.963622,11 L214.974051,11 C228.39457,11 239.27405,21.87948 239.27405,35.2999987 L239.27405,480.018683 C239.27405,493.439201 228.39457,504.318681 214.974051,504.318681 L35.2999987,504.318681 C21.87948,504.318681 11,493.439201 11,480.018683 L11,35.2999987 C11,21.87948 21.87948,11 35.2999987,11 L64,11 Z"/><g id="Illustration" transform="translate(19.000000, 0.000000)"><mask id="mask-4" fill="#fff"><use xlink:href="#path-3"/></mask><g id="Group-2" mask="url(#mask-4)"><g transform="translate(95.297164, 291.777431) rotate(14.000000) translate(-95.297164, -291.777431) translate(-178.702836, -79.222569)"><g id="Head/Front/Short-Beard" transform="translate(377.196306, 137.252003) rotate(32.000000) translate(-377.196306, -137.252003) translate(261.040537, 48.427003)"><g id="Head" fill="#D4A181" stroke-width="1"><path d="M65.1554288,15.6023383 C75.0539685,34.0525237 73.8777646,80.8529491 61.0847841,84.1505119 C55.9828326,85.4656085 45.1140137,82.2440342 34.05223,75.5764286 L40.9961538,124.696635 L0,124.696635 L14.1121585,58.9136559 C6.24172942,49.6748386 0.915003505,38.3527365 1.80515688,25.6660758 C4.37007081,-10.8896385 55.2568891,-2.84784712 65.1554288,15.6023383 Z" transform="translate(92.241346, 52.953365)"/></g><path id="Hair" fill="#191847" d="M135.171252,50.5970624 C146.673923,51.5836902 156.945257,55.0911666 159.856235,57.1741704 C159.856235,68.0641569 157.746145,71.2951839 139.723101,71.0103809 C135.29462,73.3491461 131.89021,77.3764693 128.34428,82.656406 C129.912891,104.515178 134.06412,115.446354 140.797518,115.446354 C150.897615,115.446354 159.466829,109.034471 163.898509,109.034471 C167.129053,109.034471 166.407772,113.077198 164.266398,116.074593 C162.499696,118.54754 153.896004,120.931165 153.896004,124.765063 C153.896004,128.598961 160.693634,125.632886 160.693634,127.906696 C160.693634,131.667855 161.888308,138.739507 155.360432,138.739507 C148.754005,138.739507 129.812207,136.331998 126.566096,126.526894 C124.471199,120.199111 123.11668,107.086915 122.50254,87.1903057 C122.102015,87.1413412 121.694015,87.1168269 121.280288,87.1168269 C115.619901,87.1168269 111.03125,91.7054777 111.03125,97.3658654 C111.03125,100.239385 112.213804,102.836705 114.118798,104.69771 C111.74731,108.045049 109.089552,111.541794 106.044044,115.14998 C94.6027338,108.285659 86.1126306,88.1912188 97.2983688,68.8876793 C100.390142,59.4311754 107.389484,54.3801013 115.655875,52.0347254 C122.352078,49.2336824 129.303371,48.9178624 135.171252,50.5970624 Z"/></g><g id="Bottom/Standing/Skinny-Jeans" transform="translate(0.546497, 333.278012)"><polygon id="Leg" fill="#191847" points="218.88 0 280.876 217.558 326.109 377.91 359.1 377.91 311.034 0"/><path id="Leg" fill="#2F3676" d="M202.300425,0 C200.866464,112.131924 195.976683,173.291722 194.471083,183.479395 C192.965482,193.667067 170.200014,258.477269 126.174678,377.91 L160.351226,377.91 C216.398847,263.334702 247.686063,198.5245 254.212874,183.479395 C260.739685,168.434289 280.88206,107.274491 311.22,0 L202.300425,0 Z"/><g id="Accessories/Shoe/Flat-Pointy" fill="#191847" transform="translate(123.120000, 340.290000)"><path id="Shoe" d="M0,68.4 L1.71,32.49 L37.62,32.49 C54.6475016,44.46 76.8775016,54.15 104.31,61.56 L104.31,68.4 L39.33,68.4 L17.1,64.98 L17.1,68.4 L0,68.4 Z"/></g><g id="Accessories/Shoe/Flat-Pointy" fill="#191847" transform="translate(321.480000, 340.290000)"><path id="Shoe" d="M0,68.4 L1.71,32.49 L37.62,32.49 C54.6475016,44.46 76.8775016,54.15 104.31,61.56 L104.31,68.4 L39.33,68.4 L17.1,64.98 L17.1,68.4 L0,68.4 Z"/></g></g><g id="Body/Hoodie" transform="translate(286.254912, 336.149201) rotate(21.000000) translate(-286.254912, -336.149201) translate(67.754912, 176.541779)"><path id="Skin" fill="#D4A181" d="M116.603768,158.787862 L152.276269,158.928145 C130.250145,230.032258 118.359312,267.759654 116.603768,272.110335 C112.653794,281.899367 121.01247,296.807894 124.586971,304.819624 C112.944939,310.029087 114.18541,290.73632 99.4992991,297.568821 C86.0944982,303.805211 75.8974995,315.105132 60.410189,305.548986 C58.5061152,304.374114 56.4195605,299.950509 61.4609404,296.493695 C74.0208564,287.881512 92.1204562,272.80864 94.5659971,267.847288 C97.9009291,261.081597 105.246853,224.728455 116.603768,158.787862 L116.603768,158.787862 Z M325.669478,157.407887 L380.120824,197.392702 C394.88915,201.377729 407.227609,206.335776 417.136201,212.266843 C419.476782,214.399616 422.305595,218.718837 412.598637,217.972368 C402.89168,217.225898 392.647845,216.877282 391.308474,220.188175 C389.969102,223.499068 395.843227,227.458533 393.135774,231.925795 C391.330805,234.90397 382.803408,227.436308 367.553582,209.522809 L313.632465,187.163084 L325.669478,157.407887 Z"/><path id="Coat-Back" fill="#2B44FF" d="M209.506905,16.3538899 L223.990982,12.5452118 C282.673279,54.9029666 313.004168,143.4868 384.076266,185.601001 L369.725438,206.96139 C252.451551,202.746903 214.033235,94.8202974 209.506905,16.3538899 Z" transform="translate(296.791586, 109.753301) rotate(5.000000) translate(-296.791586, -109.753301)"/><path id="Shirt" fill="#DDE3E9" d="M153.632812,194.601562 C212.818583,194.601562 256.354396,194.601562 284.24025,194.601562 C290.208344,194.601562 289.08377,185.983849 288.221046,181.635304 C278.264167,131.447835 239.396289,77.3481729 239.396289,5.90757476 L201.722956,0 C170.562269,50.1157179 159.786364,111.818314 153.632812,194.601562 Z"/><path id="Coat-Front" fill="#2B44FF" d="M198.886264,-1.24344979e-14 C200.161396,-1.15463195e-14 201.329283,0.0799305017 202.389925,0.239791505 L214.18392,0.912817795 C248.021374,115.591953 257.353542,192.104087 242.180424,230.449219 L242.180424,230.449219 L139.381422,230.451029 C133.291017,244.652514 127.463004,256.601129 121.897382,266.296875 L121.897382,266.296875 L93.8867187,266.296875 C91.2505029,181.059228 111.516028,108.713656 154.683293,49.2601593 C149.211586,47.6893054 144.878157,44.0208822 141.683594,38.256602 C127.913923,13.4105669 132.886796,-0.269015809 147.602206,-4.76557188 C162.317617,-9.26212795 175.440682,-3.55271368e-14 198.886264,-1.24344979e-14 Z"/><path id="Shade" fill="#000" fill-opacity=".1" d="M177.53125,230.449219 L139.381796,230.450157 C146.486436,213.883618 153.948135,194.251403 161.766893,171.55351 C164.999984,198.602111 170.254729,218.234849 177.53125,230.449219 Z"/></g></g></g></g></g></g></g></g></svg>