<svg xmlns="http://www.w3.org/2000/svg" xmlns:xlink="http://www.w3.org/1999/xlink" id="Capa_1" x="0" y="0" version="1.1" viewBox="0 0 512 512" xml:space="preserve" style="enable-background:new 0 0 512 512"><path style="fill:#efefef" d="M39.494,385.516c-17.193,0-31.182-13.988-31.182-31.182v-45.949h495.656v45.949	c0,17.193-13.989,31.182-31.182,31.182H39.494z"/><path style="fill:#44c973" d="M8.031,312.4V52.264c0-17.193,13.989-31.182,31.182-31.182h433.574	c17.193,0,31.182,13.989,31.182,31.182V312.4H8.031z"/><polygon style="fill:#efefef" points="104.803 490.918 137.788 444.737 374.492 444.737 407.479 490.918"/><rect style="fill:#d4d4d4" width="136.433" height="67.253" x="187.924" y="381.5"/><path d="M472.787,13.051H39.213C17.591,13.051,0,30.642,0,52.264v258.128c0,0.801,0.103,1.576,0.281,2.322v41.62	c0,21.622,17.591,39.213,39.213,39.213h140.398v43.159h-41.07c-3.242,0-6.285,1.566-8.169,4.204l-30.118,42.165	c-2.186,3.06-2.478,7.086-0.757,10.429c1.721,3.344,5.166,5.445,8.927,5.445h294.871c3.761,0,7.206-2.101,8.927-5.445	c1.721-3.344,1.429-7.369-0.757-10.429l-30.118-42.165c-1.885-2.638-4.928-4.204-8.17-4.204h-41.07v-43.159h140.398	c21.621,0,39.213-17.591,39.213-39.213v-43.942V52.264C512,30.642,494.409,13.051,472.787,13.051z M39.213,33.129h433.574	c10.551,0,19.135,8.584,19.135,19.135v248.089H20.078V52.264C20.078,41.713,28.662,33.129,39.213,33.129z M384.068,478.871H128.213	l15.776-22.086h224.304L384.068,478.871z M312.31,436.706H199.971v-43.159H312.31V436.706z M491.922,354.334	c0,10.55-8.584,19.135-19.135,19.135H39.494c-10.551,0-19.135-8.584-19.135-19.135v-33.902h471.562V354.334z"/><path d="M236.534,356.984h39.213c5.544,0,10.039-4.495,10.039-10.039c0-5.545-4.496-10.039-10.039-10.039h-39.213	c-5.545,0-10.039,4.495-10.039,10.039C226.495,352.49,230.989,356.984,236.534,356.984z"/><path d="M85.374,138.193h10.244c5.545,0,10.039-4.495,10.039-10.039c0-5.545-4.495-10.039-10.039-10.039H85.374	c-8.428,0-15.284-6.857-15.284-15.284s6.857-15.284,15.284-15.284h10.244c5.545,0,10.039-4.495,10.039-10.039	c0-5.545-4.495-10.039-10.039-10.039H85.374c-19.499,0-35.362,15.863-35.362,35.362S65.875,138.193,85.374,138.193z"/><path d="M129.173,87.547c12.919,0,12.941-20.078,0-20.078C116.253,67.469,116.232,87.547,129.173,87.547z"/><path d="M130.512,118.114c-12.919,0-12.941,20.078,0,20.078C143.431,138.193,143.452,118.114,130.512,118.114z"/><path d="M168.633,137.639c1.089,0.377,2.199,0.557,3.291,0.557c4.157,0,8.045-2.603,9.484-6.752l17.569-50.646	c1.817-5.238-0.957-10.958-6.194-12.775c-5.236-1.817-10.959,0.956-12.775,6.194l-17.569,50.646	C160.621,130.101,163.394,135.822,168.633,137.639z"/><path d="M152.794,187.07h165.062c5.544,0,10.039-4.495,10.039-10.039c0-5.545-4.496-10.039-10.039-10.039H152.794	c-5.545,0-10.039,4.495-10.039,10.039C142.755,182.575,147.249,187.07,152.794,187.07z"/><path d="M56.463,230.587h165.061c5.545,0,10.039-4.495,10.039-10.039s-4.495-10.039-10.039-10.039H56.463	c-5.545,0-10.039,4.495-10.039,10.039S50.918,230.587,56.463,230.587z"/><path d="M380.581,253.663c-12.919,0-12.941,20.078,0,20.078C393.5,273.741,393.522,253.663,380.581,253.663z"/><path d="M418.06,253.663c-12.919,0-12.941,20.078,0,20.078C430.981,273.741,431.002,253.663,418.06,253.663z"/><path d="M455.54,253.663c-12.919,0-12.941,20.078,0,20.078C468.46,273.741,468.481,253.663,455.54,253.663z"/><path d="M56.463,187.07h48.651c5.545,0,10.039-4.495,10.039-10.039c0-5.545-4.495-10.039-10.039-10.039H56.463	c-5.545,0-10.039,4.495-10.039,10.039C46.423,182.575,50.918,187.07,56.463,187.07z"/><path d="M56.463,273.741h287.977c5.544,0,10.039-4.495,10.039-10.039c0-5.545-4.496-10.039-10.039-10.039H56.463	c-5.545,0-10.039,4.495-10.039,10.039C46.423,269.247,50.918,273.741,56.463,273.741z"/><path d="M388.129,220.548c0-5.545-4.496-10.039-10.039-10.039H264.125c-5.544,0-10.039,4.495-10.039,10.039	s4.496,10.039,10.039,10.039H378.09C383.635,230.587,388.129,226.092,388.129,220.548z"/><path d="M455.54,166.991h-93.03c-5.544,0-10.039,4.495-10.039,10.039c0,5.545,4.496,10.039,10.039,10.039h93.03	c5.544,0,10.039-4.495,10.039-10.039C465.58,171.486,461.084,166.991,455.54,166.991z"/><path d="M333.237,83.66h90.347c5.544,0,10.039-4.495,10.039-10.039s-4.496-10.039-10.039-10.039h-90.347	c-5.544,0-10.039,4.495-10.039,10.039S327.692,83.66,333.237,83.66z"/><path d="M455.54,83.66c12.919,0,12.941-20.078,0-20.078C442.621,63.581,442.6,83.66,455.54,83.66z"/></svg>