<svg xmlns="http://www.w3.org/2000/svg" width="511pt" height="511pt" viewBox="0 -37 512 511"><path fill="#ff8a98" d="m228.886719 11.894531-218.035157 222.460938c-16.753906 17.09375-13.699218 45.238281 6.332032 58.339843l209.226562 136.835938c17.976563 11.757812 41.203125 11.757812 59.179688 0l209.222656-136.835938c20.035156-13.101562 23.089844-41.246093 6.335938-58.339843l-218.039063-222.460938c-14.882813-15.1875-39.335937-15.1875-54.222656 0zm0 0"/><path fill="#ffbfc7" d="m256 293.160156 144.640625-62.300781-134.246094-228.914063c-6.796875-1.929687-13.996093-1.929687-20.792969.003907l-134.246093 228.90625zm0 0"/><path fill="#ff8a98" d="m111.355469 230.855469-111.35156275 30.609375c.18359375 12.070312 6.05859375 23.964844 17.17187475 31.230468l209.222657 136.835938c8.988281 5.878906 19.304687 8.816406 29.605468 8.816406l-.003906-145.1875zm0 0"/><path fill="#fd5c6f" d="m494.820312 292.695312c11.109376-7.265624 16.992188-19.160156 17.175782-31.230468l-111.355469-30.605469-144.640625 62.300781.003906 145.1875c10.300782 0 20.605469-2.9375 29.589844-8.816406zm0 0"/><path fill="#f6334c" d="m511.996094 261.464844-111.355469-30.605469-144.640625 62.300781v67.460938c26.726562-.019532 61.011719-13.707032 89.480469-27.96875 34.269531-17.164063 73.164062-22.289063 110.386719-14.480469l38.953124-25.476563c11.109376-7.265624 16.992188-19.160156 17.175782-31.230468zm0 0"/><path fill="#fd5c6f" d="m.00390625 261.464844c.18359375 12.070312 6.05859375 23.964844 17.17187475 31.230468l38.929688 25.460938c37.199219-7.785156 76.066406-2.660156 110.3125 14.496094 28.488281 14.269531 62.851562 27.964844 89.582031 27.964844v-67.457032l-144.644531-62.304687zm0 0"/><path fill="#fff" d="m262.445312 235.246094c-8.53125 0-15.453124-6.921875-15.453124-15.453125v-58.632813l-15.796876 12.53125c-6.683593 5.304688-16.40625 4.183594-21.710937-2.503906-5.304687-6.683594-4.183594-16.40625 2.503906-21.707031l40.855469-32.410157c4.644531-3.683593 10.988281-4.386718 16.324219-1.804687 5.339843 2.578125 8.730469 7.984375 8.730469 13.914063v90.613281c0 8.53125-6.917969 15.453125-15.453126 15.453125zm0 0"/></svg>